<svg width="12" height="12" viewBox="0 0 12 12" fill="none" xmlns="http://www.w3.org/2000/svg">
<rect width="12" height="12" rx="6" fill="white"/>
<path d="M6 0C2.68661 0 0 2.68661 0 6C0 9.31339 2.68661 12 6 12C9.31339 12 12 9.31339 12 6C12 2.68661 9.31339 0 6 0ZM8.21518 8.27946L7.33125 8.27545L6 6.68839L4.67009 8.27411L3.78482 8.27812C3.72589 8.27812 3.67768 8.23125 3.67768 8.17098C3.67768 8.14554 3.68705 8.12143 3.70312 8.10134L5.44554 6.02545L3.70312 3.95089C3.68694 3.93126 3.67796 3.90669 3.67768 3.88125C3.67768 3.82232 3.72589 3.77411 3.78482 3.77411L4.67009 3.77813L6 5.36518L7.32991 3.77946L8.21384 3.77545C8.27277 3.77545 8.32098 3.82232 8.32098 3.88259C8.32098 3.90804 8.31161 3.93214 8.29554 3.95223L6.5558 6.02679L8.29688 8.10268C8.31295 8.12277 8.32232 8.14687 8.32232 8.17232C8.32232 8.23125 8.27411 8.27946 8.21518 8.27946Z" fill="black"/>
</svg>
